<svg
            xmlns="http://www.w3.org/2000/svg"
            width="12"
            height="15"
            viewBox="0 0 12 15"
            fill="none"
          >
            <path
              d="M8.32643 2.2998H9.5475C9.87135 2.2998 10.1819 2.43677 10.4109 2.68057C10.6399 2.92436 10.7686 3.25502 10.7686 3.5998V12.6998C10.7686 13.0446 10.6399 13.3752 10.4109 13.619C10.1819 13.8628 9.87135 13.9998 9.5475 13.9998H2.22107C1.89722 13.9998 1.58664 13.8628 1.35764 13.619C1.12865 13.3752 1 13.0446 1 12.6998V3.5998C1 3.25502 1.12865 2.92436 1.35764 2.68057C1.58664 2.43677 1.89722 2.2998 2.22107 2.2998H3.44214"
              stroke="#FFF"
              stroke-width="1.3"
              stroke-linecap="round"
              stroke-linejoin="round"
            />
            <path
              d="M7.71516 1H4.05194C3.71475 1 3.44141 1.29101 3.44141 1.65V2.95C3.44141 3.30899 3.71475 3.6 4.05194 3.6H7.71516C8.05235 3.6 8.32569 3.30899 8.32569 2.95V1.65C8.32569 1.29101 8.05235 1 7.71516 1Z"
              stroke="#FFF"
              stroke-width="1.3"
              stroke-linecap="round"
              stroke-linejoin="round"
            />
            <path
              d="M8.99439 8.94531H2.73242"
              stroke="#FFF"
              stroke-width="1.08333"
              stroke-linecap="round"
              stroke-linejoin="round"
            />
            <path
              d="M8.99439 11.6885H2.73242"
              stroke="#FFF"
              stroke-width="1.08333"
              stroke-linecap="round"
              stroke-linejoin="round"
            />
            <path
              d="M8.79909 6.2002H5.76576H2.73242"
              stroke="#FFF"
              stroke-width="1.08333"
              stroke-linecap="round"
              stroke-linejoin="round"
            />
          </svg>
