<svg width="40" height="40" viewBox="0 0 40 40" fill="none" xmlns="http://www.w3.org/2000/svg">
<g clip-path="url(#clip0_6485_8309)">
<path d="M36.6654 18.4671V20.0004C36.6633 23.5945 35.4995 27.0916 33.3476 29.9701C31.1956 32.8487 28.1708 34.9546 24.7243 35.9736C21.2778 36.9926 17.5941 36.8703 14.2228 35.6247C10.8515 34.3792 7.97312 32.0773 6.01697 29.0622C4.06081 26.0472 3.13168 22.4805 3.36816 18.8943C3.60464 15.308 4.99404 11.8943 7.32916 9.16221C9.66429 6.43012 12.82 4.52606 16.3257 3.734C19.8314 2.94194 23.4991 3.30432 26.782 4.76709" stroke="white" stroke-width="5" stroke-linecap="round" stroke-linejoin="round"/>
<path d="M36.6667 6.66699L20 23.3503L15 18.3503" stroke="white" stroke-width="5" stroke-linecap="round" stroke-linejoin="round"/>
</g>
<defs>
<clipPath id="clip0_6485_8309">
<rect width="40" height="40" fill="white"/>
</clipPath>
</defs>
</svg>
