<svg width="23" height="23" viewBox="0 0 23 23" fill="none" xmlns="http://www.w3.org/2000/svg">
<g clip-path="url(#clip0_9029_9954)">
<path d="M14.067 1.41724V5.45057C14.067 5.98542 14.2795 6.49837 14.6577 6.87657C15.0359 7.25477 15.5488 7.46724 16.0837 7.46724H20.117M3.17703 12.4081L2.26953 12.0047M3.17703 14.6264L2.26953 15.0297" stroke="#C3A1F5" stroke-width="1.65" stroke-linecap="round" stroke-linejoin="round"/>
<path d="M4.66702 21.0797C5.03284 21.4024 5.5032 21.5815 5.99096 21.5839H18.101C18.6359 21.5839 19.1488 21.3714 19.527 20.9932C19.9052 20.615 20.1177 20.1021 20.1177 19.5672V6.4589L15.076 1.41724H6.00104C5.46619 1.41724 4.95324 1.62971 4.57504 2.0079C4.19684 2.3861 3.98438 2.89905 3.98438 3.4339V5.95474M4.89188 10.6939L4.48854 9.7864M4.89188 16.3406L4.48854 17.2481M7.51354 9.7864L7.11021 10.6939M7.51354 17.2481L7.11021 16.3406M9.73187 12.0047L8.82438 12.4081M9.73187 15.0297L8.82438 14.6264" stroke="#C3A1F5" stroke-width="1.65" stroke-linecap="round" stroke-linejoin="round"/>
<path d="M6.00156 16.5424C7.67222 16.5424 9.02656 15.1881 9.02656 13.5174C9.02656 11.8468 7.67222 10.4924 6.00156 10.4924C4.3309 10.4924 2.97656 11.8468 2.97656 13.5174C2.97656 15.1881 4.3309 16.5424 6.00156 16.5424Z" stroke="#C3A1F5" stroke-width="1.65" stroke-linecap="round" stroke-linejoin="round"/>
</g>
<defs>
<clipPath id="clip0_9029_9954">
<rect width="22" height="22" fill="white" transform="translate(0.5 0.5)"/>
</clipPath>
</defs>
</svg>
