<svg xmlns="http://www.w3.org/2000/svg" width="18" height="22" viewBox="0 0 18 22" fill="none">
  <mask id="mask0_8150_22667" style="mask-type:alpha" maskUnits="userSpaceOnUse" x="0" y="0" width="18" height="22">
    <path d="M1.75879 17.7873C1.75879 17.1872 1.9972 16.6116 2.42159 16.1872C2.84597 15.7628 3.42155 15.5244 4.02172 15.5244H16.2415" stroke="white" stroke-width="2" stroke-linecap="round" stroke-linejoin="round"/>
    <path d="M4.02172 1.94824H16.2415V20.0517H4.02172C3.42155 20.0517 2.84597 19.8133 2.42159 19.3889C1.9972 18.9645 1.75879 18.3889 1.75879 17.7888V4.21117C1.75879 3.61101 1.9972 3.03542 2.42159 2.61104C2.84597 2.18666 3.42155 1.94824 4.02172 1.94824Z" stroke="white" stroke-width="2" stroke-linecap="round" stroke-linejoin="round"/>
  </mask>
  <g mask="url(#mask0_8150_22667)">
    <rect width="21" height="21" transform="matrix(1 0 0 -1 -1.52246 21.4385)" fill="white"/>
    <rect width="21" height="21" transform="matrix(1 0 0 -1 -1.52246 21.4385)" fill="url(#paint0_linear_8150_22667)"/>
  </g>
  <defs>
    <linearGradient id="paint0_linear_8150_22667" x1="14.8637" y1="19.32" x2="1.5425" y2="5.11902" gradientUnits="userSpaceOnUse">
      <stop stop-color="#CEEB50"/>
      <stop offset="1" stop-color="#FA6955"/>
    </linearGradient>
  </defs>
</svg>
