<svg xmlns="http://www.w3.org/2000/svg" width="28" height="28" viewBox="0 0 28 28" fill="none">
<path d="M11.6081 19.3697H8.38282C7.09973 19.3697 5.86919 18.826 4.96191 17.8582C4.05463 16.8905 3.54492 15.5779 3.54492 14.2093C3.54492 12.8406 4.05463 11.5281 4.96191 10.5603C5.86919 9.59251 7.09973 9.04883 8.38282 9.04883H11.6081M16.446 9.04883H19.6713C20.9543 9.04883 22.1849 9.59251 23.0922 10.5603C23.9995 11.5281 24.5092 12.8406 24.5092 14.2093C24.5092 15.5779 23.9995 16.8905 23.0922 17.8582C22.1849 18.826 20.9543 19.3697 19.6713 19.3697H16.446M9.35494 14.2093H18.7999" stroke="#6C36BC" stroke-width="1.75" stroke-linecap="round" stroke-linejoin="round"/>
</svg>
