<svg width="23" height="23" viewBox="0 0 23 23" fill="none" xmlns="http://www.w3.org/2000/svg">
<g clip-path="url(#clip0_9029_9961)">
<path d="M11.5016 3.1812C11.1004 3.1812 10.7157 3.34055 10.4321 3.6242C10.1484 3.90785 9.98906 4.29256 9.98906 4.6937C9.98906 5.09484 10.1484 5.47955 10.4321 5.7632C10.7157 6.04685 11.1004 6.2062 11.5016 6.2062C11.9027 6.2062 12.2874 6.04685 12.5711 5.7632C12.8547 5.47955 13.0141 5.09484 13.0141 4.6937C13.0141 4.29256 12.8547 3.90785 12.5711 3.6242C12.2874 3.34055 11.9027 3.1812 11.5016 3.1812ZM8.47656 4.6937C8.47656 3.89142 8.79527 3.122 9.36256 2.5547C9.92986 1.98741 10.6993 1.6687 11.5016 1.6687C12.3038 1.6687 13.0733 1.98741 13.6406 2.5547C14.2079 3.122 14.5266 3.89142 14.5266 4.6937C14.5266 5.49598 14.2079 6.2654 13.6406 6.8327C13.0733 7.4 12.3038 7.7187 11.5016 7.7187C10.6993 7.7187 9.92986 7.4 9.36256 6.8327C8.79527 6.2654 8.47656 5.49598 8.47656 4.6937ZM18.6859 3.93745C18.3851 3.93745 18.0965 4.05697 17.8838 4.2697C17.6711 4.48244 17.5516 4.77097 17.5516 5.07183C17.5516 5.37268 17.6711 5.66121 17.8838 5.87395C18.0965 6.08669 18.3851 6.2062 18.6859 6.2062C18.9868 6.2062 19.2753 6.08669 19.4881 5.87395C19.7008 5.66121 19.8203 5.37268 19.8203 5.07183C19.8203 4.77097 19.7008 4.48244 19.4881 4.2697C19.2753 4.05697 18.9868 3.93745 18.6859 3.93745ZM16.0391 5.07183C16.0391 4.72423 16.1075 4.38004 16.2405 4.05891C16.3736 3.73778 16.5685 3.44599 16.8143 3.2002C17.0601 2.95442 17.3519 2.75945 17.673 2.62643C17.9942 2.49341 18.3383 2.42495 18.6859 2.42495C19.0335 2.42495 19.3777 2.49341 19.6989 2.62643C20.02 2.75945 20.3118 2.95442 20.5576 3.2002C20.8033 3.44599 20.9983 3.73778 21.1313 4.05891C21.2643 4.38004 21.3328 4.72423 21.3328 5.07183C21.3328 5.77382 21.0539 6.44706 20.5576 6.94345C20.0612 7.43984 19.3879 7.7187 18.6859 7.7187C17.9839 7.7187 17.3107 7.43984 16.8143 6.94345C16.3179 6.44706 16.0391 5.77382 16.0391 5.07183ZM3.18281 5.07183C3.18281 4.77097 3.30233 4.48244 3.51506 4.2697C3.7278 4.05697 4.01633 3.93745 4.31719 3.93745C4.61804 3.93745 4.90657 4.05697 5.11931 4.2697C5.33205 4.48244 5.45156 4.77097 5.45156 5.07183C5.45156 5.37268 5.33205 5.66121 5.11931 5.87395C4.90657 6.08669 4.61804 6.2062 4.31719 6.2062C4.01633 6.2062 3.7278 6.08669 3.51506 5.87395C3.30233 5.66121 3.18281 5.37268 3.18281 5.07183ZM4.31719 2.42495C3.61519 2.42495 2.94195 2.70382 2.44556 3.2002C1.94918 3.69659 1.67031 4.36983 1.67031 5.07183C1.67031 5.77382 1.94918 6.44706 2.44556 6.94345C2.94195 7.43984 3.61519 7.7187 4.31719 7.7187C5.01918 7.7187 5.69243 7.43984 6.18881 6.94345C6.6852 6.44706 6.96406 5.77382 6.96406 5.07183C6.96406 4.36983 6.6852 3.69659 6.18881 3.2002C5.69243 2.70382 5.01918 2.42495 4.31719 2.42495ZM5.94388 17.9319C5.60185 18.1573 5.20516 18.2859 4.79592 18.3041C4.38668 18.3223 3.98015 18.2293 3.61949 18.035C3.25883 17.8408 2.9575 17.5525 2.74746 17.2008C2.53743 16.8491 2.42654 16.4471 2.42656 16.0375V11.1218C2.42656 11.0215 2.4664 10.9254 2.53731 10.8545C2.60823 10.7835 2.7044 10.7437 2.80469 10.7437H5.85313C5.92284 10.1902 6.14426 9.66673 6.49292 9.2312H2.80469C2.30326 9.2312 1.82237 9.43039 1.46781 9.78495C1.11325 10.1395 0.914063 10.6204 0.914063 11.1218V16.0375C0.913868 16.6886 1.08184 17.3288 1.40172 17.896C1.7216 18.4632 2.18253 18.9382 2.73988 19.275C3.29723 19.6117 3.9321 19.7988 4.58299 19.8182C5.23389 19.8375 5.87874 19.6884 6.45511 19.3854C6.21937 18.9264 6.04738 18.4374 5.94388 17.9319ZM16.548 19.3854C17.1244 19.6884 17.7692 19.8375 18.4201 19.8182C19.071 19.7988 19.7059 19.6117 20.2632 19.275C20.8206 18.9382 21.2815 18.4632 21.6014 17.896C21.9213 17.3288 22.0893 16.6886 22.0891 16.0375V11.1218C22.0891 10.6204 21.8899 10.1395 21.5353 9.78495C21.1807 9.43039 20.6999 9.2312 20.1984 9.2312H16.5102C16.8589 9.66673 17.0803 10.1902 17.15 10.7437H20.1984C20.2987 10.7437 20.3949 10.7835 20.4658 10.8545C20.5367 10.9254 20.5766 11.0215 20.5766 11.1218V16.0375C20.5766 16.4471 20.4657 16.8491 20.2557 17.2008C20.0456 17.5525 19.7443 17.8408 19.3836 18.035C19.023 18.2293 18.6164 18.3223 18.2072 18.3041C17.798 18.2859 17.4013 18.1573 17.0592 17.9319C16.9557 18.4374 16.7837 18.9264 16.548 19.3854ZM8.85469 9.2312C8.35326 9.2312 7.87237 9.43039 7.51781 9.78495C7.16325 10.1395 6.96406 10.6204 6.96406 11.1218V16.7937C6.96406 17.9971 7.44212 19.1513 8.29307 20.0022C9.14401 20.8531 10.2981 21.3312 11.5016 21.3312C12.705 21.3312 13.8591 20.8531 14.7101 20.0022C15.561 19.1513 16.0391 17.9971 16.0391 16.7937V11.1218C16.0391 10.6204 15.8399 10.1395 15.4853 9.78495C15.1307 9.43039 14.6499 9.2312 14.1484 9.2312H8.85469ZM8.47656 11.1218C8.47656 11.0215 8.5164 10.9254 8.58731 10.8545C8.65822 10.7835 8.7544 10.7437 8.85469 10.7437H14.1484C14.2487 10.7437 14.3449 10.7835 14.4158 10.8545C14.4867 10.9254 14.5266 11.0215 14.5266 11.1218V16.7937C14.5266 17.596 14.2079 18.3654 13.6406 18.9327C13.0733 19.5 12.3038 19.8187 11.5016 19.8187C10.6993 19.8187 9.92986 19.5 9.36256 18.9327C8.79527 18.3654 8.47656 17.596 8.47656 16.7937V11.1218Z" fill="#C3A1F5"/>
</g>
<defs>
<clipPath id="clip0_9029_9961">
<rect width="22" height="22" fill="white" transform="translate(0.5 0.5)"/>
</clipPath>
</defs>
</svg>
