<svg xmlns="http://www.w3.org/2000/svg" width="24" height="23" viewBox="0 0 24 23" fill="none">
<path d="M14.1319 2.04248H5.53889C4.96913 2.04248 4.42271 2.24087 4.01984 2.59401C3.61696 2.94715 3.39063 3.42611 3.39062 3.92553V18.9899C3.39063 19.4893 3.61696 19.9683 4.01984 20.3214C4.42271 20.6746 4.96913 20.873 5.53889 20.873H18.4285C18.9982 20.873 19.5447 20.6746 19.9475 20.3214C20.3504 19.9683 20.5767 19.4893 20.5767 18.9899V7.69162L14.1319 2.04248Z" stroke="#ffffff" stroke-width="0.888867" stroke-linecap="round" stroke-linejoin="round"/>
<path d="M14.1328 2.04248V7.69162H20.5776" stroke="#ffffff" stroke-width="0.888867" stroke-linecap="round" stroke-linejoin="round"/>
<path d="M16.2786 12.3955H7.68555" stroke="#ffffff" stroke-width="0.888867" stroke-linecap="round" stroke-linejoin="round"/>
<path d="M16.2786 16.163H7.68555" stroke="#ffffff" stroke-width="0.888867" stroke-linecap="round" stroke-linejoin="round"/>
<path d="M9.83381 8.63098H8.75968H7.68555" stroke="#ffffff" stroke-width="0.888867" stroke-linecap="round" stroke-linejoin="round"/>
</svg>
