<svg xmlns="http://www.w3.org/2000/svg" width="19" height="18" viewBox="0 0 19 18" fill="none">
  <path d="M16.5158 7.68466C16.5158 3.80998 13.3748 0.668945 9.50009 0.668945C5.62541 0.668945 2.48438 3.80998 2.48438 7.68466" stroke="#C3A1F5" stroke-linecap="round" stroke-linejoin="round"/>
  <path d="M0.730469 11.5773V9.93146C0.730469 9.12658 1.27821 8.4251 2.05901 8.22989L3.58453 7.8485C3.91663 7.76545 4.23832 8.01661 4.23832 8.35898V13.1498C4.23832 13.4922 3.91663 13.7434 3.58453 13.6603L2.05901 13.2789C1.27821 13.0837 0.730469 12.3822 0.730469 11.5773Z" stroke="#C3A1F5"/>
  <path d="M18.2706 11.5773V9.93146C18.2706 9.12658 17.7228 8.4251 16.942 8.22989L15.4165 7.8485C15.0844 7.76545 14.7627 8.01661 14.7627 8.35898V13.1498C14.7627 13.4922 15.0844 13.7434 15.4165 13.6603L16.942 13.2789C17.7228 13.0837 18.2706 12.3822 18.2706 11.5773Z" stroke="#C3A1F5"/>
  <path d="M16.5147 13.8237V14.2622C16.5147 15.2309 15.7295 16.0161 14.7608 16.0161H11.6914" stroke="#C3A1F5"/>
  <path d="M10.8155 17.3311H8.18459C7.45808 17.3311 6.86914 16.7421 6.86914 16.0156C6.86914 15.2892 7.45808 14.7002 8.18459 14.7002H10.8155C11.542 14.7002 12.1309 15.2892 12.1309 16.0156C12.1309 16.7421 11.542 17.3311 10.8155 17.3311Z" stroke="#C3A1F5"/>
</svg>
