<?xml version="1.0" encoding="UTF-8" standalone="no"?>
<!DOCTYPE svg PUBLIC "-//W3C//DTD SVG 1.1//EN"
 "http://www.w3.org/Graphics/SVG/1.1/DTD/svg11.dtd">
<!-- Generated by graphviz version 2.47.0 (20210316.0004)
 -->
<!-- Title: dependencies Pages: 1 -->
<svg width="5603pt" height="211pt"
 viewBox="0.00 0.00 5603.00 211.00" xmlns="http://www.w3.org/2000/svg" xmlns:xlink="http://www.w3.org/1999/xlink">
<g id="graph0" class="graph" transform="scale(1 1) rotate(0) translate(4 207)">
<title>dependencies</title>
<polygon fill="white" stroke="transparent" points="-4,4 -4,-207 5599,-207 5599,4 -4,4"/>
<text text-anchor="start" x="2776.51" y="-42.4" font-family="Times-12" font-weight="bold" font-size="14.00">Legend</text>
<polygon fill="#ffffb3" stroke="transparent" points="2563.5,-10 2563.5,-30 2583.5,-30 2583.5,-10 2563.5,-10"/>
<text text-anchor="start" x="2587.13" y="-15.4" font-family="Times-12" font-size="14.00"> &#160;Declarations</text>
<polygon fill="#8dd3c7" stroke="transparent" points="2676.5,-10 2676.5,-30 2696.5,-30 2696.5,-10 2676.5,-10"/>
<text text-anchor="start" x="2700.23" y="-15.4" font-family="Times-12" font-size="14.00"> &#160;Module</text>
<polygon fill="#80b1d3" stroke="transparent" points="2762.5,-10 2762.5,-30 2782.5,-30 2782.5,-10 2762.5,-10"/>
<text text-anchor="start" x="2786.28" y="-15.4" font-family="Times-12" font-size="14.00"> &#160;Bootstrap</text>
<polygon fill="#fdb462" stroke="transparent" points="2859.5,-10 2859.5,-30 2879.5,-30 2879.5,-10 2859.5,-10"/>
<text text-anchor="start" x="2883.17" y="-15.4" font-family="Times-12" font-size="14.00"> &#160;Providers</text>
<polygon fill="#fb8072" stroke="transparent" points="2955.5,-10 2955.5,-30 2975.5,-30 2975.5,-10 2955.5,-10"/>
<text text-anchor="start" x="2979.23" y="-15.4" font-family="Times-12" font-size="14.00"> &#160;Exports</text>
<g id="clust1" class="cluster">
<title>cluster_AppModule</title>
<polygon fill="none" stroke="black" stroke-dasharray="1,5" points="8,-70 8,-195 5587,-195 5587,-70 8,-70"/>
</g>
<g id="clust34" class="cluster">
<title>cluster_AppModule_imports</title>
<polygon fill="none" stroke="black" points="5435,-78 5435,-130 5579,-130 5579,-78 5435,-78"/>
</g>
<g id="clust2" class="cluster">
<title>cluster_AppModule_declarations</title>
<polygon fill="none" stroke="black" points="16,-78 16,-130 5427,-130 5427,-78 16,-78"/>
</g>
<!-- AprendizagemEInformaticaComponent -->
<g id="node1" class="node">
<title>AprendizagemEInformaticaComponent</title>
<polygon fill="#ffffb3" stroke="black" points="5418.59,-122 5181.41,-122 5181.41,-86 5418.59,-86 5418.59,-122"/>
<text text-anchor="middle" x="5300" y="-99.8" font-family="Times,serif" font-size="14.00">AprendizagemEInformaticaComponent</text>
</g>
<!-- AppModule -->
<g id="node32" class="node">
<title>AppModule</title>
<polygon fill="#8dd3c7" stroke="black" points="2773.66,-187 2770.66,-191 2749.66,-191 2746.66,-187 2690.34,-187 2690.34,-151 2773.66,-151 2773.66,-187"/>
<text text-anchor="middle" x="2732" y="-164.8" font-family="Times,serif" font-size="14.00">AppModule</text>
</g>
<!-- AprendizagemEInformaticaComponent&#45;&gt;AppModule -->
<g id="edge1" class="edge">
<title>AprendizagemEInformaticaComponent&#45;&gt;AppModule</title>
<path fill="none" stroke="black" d="M5300,-122.32C5300,-145.66 5300,-183 5300,-183 5300,-183 2783.9,-183 2783.9,-183"/>
<polygon fill="black" stroke="black" points="2783.9,-179.5 2773.9,-183 2783.9,-186.5 2783.9,-179.5"/>
</g>
<!-- AtividadeComponent -->
<g id="node2" class="node">
<title>AtividadeComponent</title>
<polygon fill="#ffffb3" stroke="black" points="5163.04,-122 5026.96,-122 5026.96,-86 5163.04,-86 5163.04,-122"/>
<text text-anchor="middle" x="5095" y="-99.8" font-family="Times,serif" font-size="14.00">AtividadeComponent</text>
</g>
<!-- AtividadeComponent&#45;&gt;AppModule -->
<g id="edge2" class="edge">
<title>AtividadeComponent&#45;&gt;AppModule</title>
<path fill="none" stroke="black" d="M5095,-122.25C5095,-145.02 5095,-181 5095,-181 5095,-181 2783.77,-181 2783.77,-181"/>
<polygon fill="black" stroke="black" points="2783.77,-177.5 2773.77,-181 2783.77,-184.5 2783.77,-177.5"/>
</g>
<!-- AtividadeUnidadeBancoComponent -->
<g id="node3" class="node">
<title>AtividadeUnidadeBancoComponent</title>
<polygon fill="#ffffb3" stroke="black" points="5008.73,-122 4789.27,-122 4789.27,-86 5008.73,-86 5008.73,-122"/>
<text text-anchor="middle" x="4899" y="-99.8" font-family="Times,serif" font-size="14.00">AtividadeUnidadeBancoComponent</text>
</g>
<!-- AtividadeUnidadeBancoComponent&#45;&gt;AppModule -->
<g id="edge3" class="edge">
<title>AtividadeUnidadeBancoComponent&#45;&gt;AppModule</title>
<path fill="none" stroke="black" d="M4899,-122.29C4899,-144.21 4899,-178 4899,-178 4899,-178 2783.83,-178 2783.83,-178"/>
<polygon fill="black" stroke="black" points="2783.83,-174.5 2773.83,-178 2783.83,-181.5 2783.83,-174.5"/>
</g>
<!-- AtividadeUnidadeComponent -->
<g id="node4" class="node">
<title>AtividadeUnidadeComponent</title>
<polygon fill="#ffffb3" stroke="black" points="4770.97,-122 4587.03,-122 4587.03,-86 4770.97,-86 4770.97,-122"/>
<text text-anchor="middle" x="4679" y="-99.8" font-family="Times,serif" font-size="14.00">AtividadeUnidadeComponent</text>
</g>
<!-- AtividadeUnidadeComponent&#45;&gt;AppModule -->
<g id="edge4" class="edge">
<title>AtividadeUnidadeComponent&#45;&gt;AppModule</title>
<path fill="none" stroke="black" d="M4679,-122.17C4679,-143.5 4679,-176 4679,-176 4679,-176 2784.02,-176 2784.02,-176"/>
<polygon fill="black" stroke="black" points="2784.02,-172.5 2774.02,-176 2784.02,-179.5 2784.02,-172.5"/>
</g>
<!-- BehaviorismoComponent -->
<g id="node5" class="node">
<title>BehaviorismoComponent</title>
<polygon fill="#ffffb3" stroke="black" points="4568.88,-122 4409.12,-122 4409.12,-86 4568.88,-86 4568.88,-122"/>
<text text-anchor="middle" x="4489" y="-99.8" font-family="Times,serif" font-size="14.00">BehaviorismoComponent</text>
</g>
<!-- BehaviorismoComponent&#45;&gt;AppModule -->
<g id="edge5" class="edge">
<title>BehaviorismoComponent&#45;&gt;AppModule</title>
<path fill="none" stroke="black" d="M4489,-122.03C4489,-142.77 4489,-174 4489,-174 4489,-174 2783.7,-174 2783.7,-174"/>
<polygon fill="black" stroke="black" points="2783.7,-170.5 2773.7,-174 2783.7,-177.5 2783.7,-170.5"/>
</g>
<!-- BotoesSectionComponent -->
<g id="node6" class="node">
<title>BotoesSectionComponent</title>
<polygon fill="#ffffb3" stroke="black" points="4391.21,-122 4228.79,-122 4228.79,-86 4391.21,-86 4391.21,-122"/>
<text text-anchor="middle" x="4310" y="-99.8" font-family="Times,serif" font-size="14.00">BotoesSectionComponent</text>
</g>
<!-- BotoesSectionComponent&#45;&gt;AppModule -->
<g id="edge6" class="edge">
<title>BotoesSectionComponent&#45;&gt;AppModule</title>
<path fill="none" stroke="black" d="M4310,-122.22C4310,-142.37 4310,-172 4310,-172 4310,-172 2783.8,-172 2783.8,-172"/>
<polygon fill="black" stroke="black" points="2783.8,-168.5 2773.8,-172 2783.8,-175.5 2783.8,-168.5"/>
</g>
<!-- ComentariosComponent -->
<g id="node7" class="node">
<title>ComentariosComponent</title>
<polygon fill="#ffffb3" stroke="black" points="4210.38,-122 4057.62,-122 4057.62,-86 4210.38,-86 4210.38,-122"/>
<text text-anchor="middle" x="4134" y="-99.8" font-family="Times,serif" font-size="14.00">ComentariosComponent</text>
</g>
<!-- ComentariosComponent&#45;&gt;AppModule -->
<g id="edge7" class="edge">
<title>ComentariosComponent&#45;&gt;AppModule</title>
<path fill="none" stroke="black" d="M4134,-122.11C4134,-141.34 4134,-169 4134,-169 4134,-169 2783.96,-169 2783.96,-169"/>
<polygon fill="black" stroke="black" points="2783.96,-165.5 2773.96,-169 2783.96,-172.5 2783.96,-165.5"/>
</g>
<!-- ConstrucionismoComponent -->
<g id="node8" class="node">
<title>ConstrucionismoComponent</title>
<polygon fill="#ffffb3" stroke="black" points="4039.5,-122 3862.5,-122 3862.5,-86 4039.5,-86 4039.5,-122"/>
<text text-anchor="middle" x="3951" y="-99.8" font-family="Times,serif" font-size="14.00">ConstrucionismoComponent</text>
</g>
<!-- ConstrucionismoComponent&#45;&gt;AppModule -->
<g id="edge8" class="edge">
<title>ConstrucionismoComponent&#45;&gt;AppModule</title>
<path fill="none" stroke="black" d="M3951,-122.22C3951,-140.83 3951,-167 3951,-167 3951,-167 2783.96,-167 2783.96,-167"/>
<polygon fill="black" stroke="black" points="2783.96,-163.5 2773.96,-167 2783.96,-170.5 2783.96,-163.5"/>
</g>
<!-- ConstrutivismoComponent -->
<g id="node9" class="node">
<title>ConstrutivismoComponent</title>
<polygon fill="#ffffb3" stroke="black" points="3844.67,-122 3677.33,-122 3677.33,-86 3844.67,-86 3844.67,-122"/>
<text text-anchor="middle" x="3761" y="-99.8" font-family="Times,serif" font-size="14.00">ConstrutivismoComponent</text>
</g>
<!-- ConstrutivismoComponent&#45;&gt;AppModule -->
<g id="edge9" class="edge">
<title>ConstrutivismoComponent&#45;&gt;AppModule</title>
<path fill="none" stroke="black" d="M3761,-122.3C3761,-140.27 3761,-165 3761,-165 3761,-165 2783.93,-165 2783.93,-165"/>
<polygon fill="black" stroke="black" points="2783.93,-161.5 2773.93,-165 2783.93,-168.5 2783.93,-161.5"/>
</g>
<!-- ErrorComponent -->
<g id="node10" class="node">
<title>ErrorComponent</title>
<polygon fill="#ffffb3" stroke="black" points="3659.37,-122 3548.63,-122 3548.63,-86 3659.37,-86 3659.37,-122"/>
<text text-anchor="middle" x="3604" y="-99.8" font-family="Times,serif" font-size="14.00">ErrorComponent</text>
</g>
<!-- ErrorComponent&#45;&gt;AppModule -->
<g id="edge10" class="edge">
<title>ErrorComponent&#45;&gt;AppModule</title>
<path fill="none" stroke="black" d="M3604,-122.02C3604,-139.37 3604,-163 3604,-163 3604,-163 2783.76,-163 2783.76,-163"/>
<polygon fill="black" stroke="black" points="2783.76,-159.5 2773.76,-163 2783.76,-166.5 2783.76,-159.5"/>
</g>
<!-- FichaMembrosComponent -->
<g id="node11" class="node">
<title>FichaMembrosComponent</title>
<polygon fill="#ffffb3" stroke="black" points="3531.09,-122 3364.91,-122 3364.91,-86 3531.09,-86 3531.09,-122"/>
<text text-anchor="middle" x="3448" y="-99.8" font-family="Times,serif" font-size="14.00">FichaMembrosComponent</text>
</g>
<!-- FichaMembrosComponent&#45;&gt;AppModule -->
<g id="edge11" class="edge">
<title>FichaMembrosComponent&#45;&gt;AppModule</title>
<path fill="none" stroke="black" d="M3448,-122.03C3448,-138.4 3448,-160 3448,-160 3448,-160 2783.85,-160 2783.85,-160"/>
<polygon fill="black" stroke="black" points="2783.85,-156.5 2773.85,-160 2783.85,-163.5 2783.85,-156.5"/>
</g>
<!-- FichaTecnicaComponent -->
<g id="node12" class="node">
<title>FichaTecnicaComponent</title>
<polygon fill="#ffffb3" stroke="black" points="3347.24,-122 3190.76,-122 3190.76,-86 3347.24,-86 3347.24,-122"/>
<text text-anchor="middle" x="3269" y="-99.8" font-family="Times,serif" font-size="14.00">FichaTecnicaComponent</text>
</g>
<!-- FichaTecnicaComponent&#45;&gt;AppModule -->
<g id="edge12" class="edge">
<title>FichaTecnicaComponent&#45;&gt;AppModule</title>
<path fill="none" stroke="black" d="M3269,-122.28C3269,-137.95 3269,-158 3269,-158 3269,-158 2783.69,-158 2783.69,-158"/>
<polygon fill="black" stroke="black" points="2783.69,-154.5 2773.69,-158 2783.69,-161.5 2783.69,-154.5"/>
</g>
<!-- ForumComponent -->
<g id="node13" class="node">
<title>ForumComponent</title>
<polygon fill="#ffffb3" stroke="black" points="3172.17,-122 3053.83,-122 3053.83,-86 3172.17,-86 3172.17,-122"/>
<text text-anchor="middle" x="3113" y="-99.8" font-family="Times,serif" font-size="14.00">ForumComponent</text>
</g>
<!-- ForumComponent&#45;&gt;AppModule -->
<g id="edge13" class="edge">
<title>ForumComponent&#45;&gt;AppModule</title>
<path fill="none" stroke="black" d="M3113,-122.19C3113,-137.18 3113,-156 3113,-156 3113,-156 2783.86,-156 2783.86,-156"/>
<polygon fill="black" stroke="black" points="2783.86,-152.5 2773.86,-156 2783.86,-159.5 2783.86,-152.5"/>
</g>
<!-- GeralComponent -->
<g id="node14" class="node">
<title>GeralComponent</title>
<polygon fill="#ffffb3" stroke="black" points="3035.42,-122 2922.58,-122 2922.58,-86 3035.42,-86 3035.42,-122"/>
<text text-anchor="middle" x="2979" y="-99.8" font-family="Times,serif" font-size="14.00">GeralComponent</text>
</g>
<!-- GeralComponent&#45;&gt;AppModule -->
<g id="edge14" class="edge">
<title>GeralComponent&#45;&gt;AppModule</title>
<path fill="none" stroke="black" d="M2979,-122.05C2979,-136.37 2979,-154 2979,-154 2979,-154 2783.9,-154 2783.9,-154"/>
<polygon fill="black" stroke="black" points="2783.9,-150.5 2773.9,-154 2783.9,-157.5 2783.9,-150.5"/>
</g>
<!-- HeaderAtividadeComponent -->
<g id="node15" class="node">
<title>HeaderAtividadeComponent</title>
<polygon fill="#ffffb3" stroke="black" points="2904.45,-122 2727.55,-122 2727.55,-86 2904.45,-86 2904.45,-122"/>
<text text-anchor="middle" x="2816" y="-99.8" font-family="Times,serif" font-size="14.00">HeaderAtividadeComponent</text>
</g>
<!-- HeaderAtividadeComponent&#45;&gt;AppModule -->
<g id="edge15" class="edge">
<title>HeaderAtividadeComponent&#45;&gt;AppModule</title>
<path fill="none" stroke="black" d="M2750.68,-122.11C2750.68,-122.11 2750.68,-140.99 2750.68,-140.99"/>
<polygon fill="black" stroke="black" points="2747.18,-140.99 2750.68,-150.99 2754.18,-140.99 2747.18,-140.99"/>
</g>
<!-- HeaderComponent -->
<g id="node16" class="node">
<title>HeaderComponent</title>
<polygon fill="#ffffb3" stroke="black" points="2709.74,-122 2588.26,-122 2588.26,-86 2709.74,-86 2709.74,-122"/>
<text text-anchor="middle" x="2649" y="-99.8" font-family="Times,serif" font-size="14.00">HeaderComponent</text>
</g>
<!-- HeaderComponent&#45;&gt;AppModule -->
<g id="edge16" class="edge">
<title>HeaderComponent&#45;&gt;AppModule</title>
<path fill="none" stroke="black" d="M2700.02,-122.11C2700.02,-122.11 2700.02,-140.99 2700.02,-140.99"/>
<polygon fill="black" stroke="black" points="2696.52,-140.99 2700.02,-150.99 2703.52,-140.99 2696.52,-140.99"/>
</g>
<!-- HeaderUnidadeComponent -->
<g id="node17" class="node">
<title>HeaderUnidadeComponent</title>
<polygon fill="#ffffb3" stroke="black" points="2570.67,-122 2401.33,-122 2401.33,-86 2570.67,-86 2570.67,-122"/>
<text text-anchor="middle" x="2486" y="-99.8" font-family="Times,serif" font-size="14.00">HeaderUnidadeComponent</text>
</g>
<!-- HeaderUnidadeComponent&#45;&gt;AppModule -->
<g id="edge17" class="edge">
<title>HeaderUnidadeComponent&#45;&gt;AppModule</title>
<path fill="none" stroke="black" d="M2486,-122.05C2486,-136.37 2486,-154 2486,-154 2486,-154 2680.27,-154 2680.27,-154"/>
<polygon fill="black" stroke="black" points="2680.27,-157.5 2690.27,-154 2680.27,-150.5 2680.27,-157.5"/>
</g>
<!-- HomeComponent -->
<g id="node18" class="node">
<title>HomeComponent</title>
<polygon fill="#ffffb3" stroke="black" points="2383.55,-122 2268.45,-122 2268.45,-86 2383.55,-86 2383.55,-122"/>
<text text-anchor="middle" x="2326" y="-99.8" font-family="Times,serif" font-size="14.00">HomeComponent</text>
</g>
<!-- HomeComponent&#45;&gt;AppModule -->
<g id="edge18" class="edge">
<title>HomeComponent&#45;&gt;AppModule</title>
<path fill="none" stroke="black" d="M2326,-122.19C2326,-137.18 2326,-156 2326,-156 2326,-156 2680.08,-156 2680.08,-156"/>
<polygon fill="black" stroke="black" points="2680.08,-159.5 2690.08,-156 2680.08,-152.5 2680.08,-159.5"/>
</g>
<!-- ListMenuComponent -->
<g id="node19" class="node">
<title>ListMenuComponent</title>
<polygon fill="#ffffb3" stroke="black" points="2249.77,-122 2114.23,-122 2114.23,-86 2249.77,-86 2249.77,-122"/>
<text text-anchor="middle" x="2182" y="-99.8" font-family="Times,serif" font-size="14.00">ListMenuComponent</text>
</g>
<!-- ListMenuComponent&#45;&gt;AppModule -->
<g id="edge19" class="edge">
<title>ListMenuComponent&#45;&gt;AppModule</title>
<path fill="none" stroke="black" d="M2182,-122.28C2182,-137.95 2182,-158 2182,-158 2182,-158 2680.21,-158 2680.21,-158"/>
<polygon fill="black" stroke="black" points="2680.21,-161.5 2690.21,-158 2680.21,-154.5 2680.21,-161.5"/>
</g>
<!-- MenuComBarraProgressoTesteComponent -->
<g id="node20" class="node">
<title>MenuComBarraProgressoTesteComponent</title>
<polygon fill="#ffffb3" stroke="black" points="2095.83,-122 1838.17,-122 1838.17,-86 2095.83,-86 2095.83,-122"/>
<text text-anchor="middle" x="1967" y="-99.8" font-family="Times,serif" font-size="14.00">MenuComBarraProgressoTesteComponent</text>
</g>
<!-- MenuComBarraProgressoTesteComponent&#45;&gt;AppModule -->
<g id="edge20" class="edge">
<title>MenuComBarraProgressoTesteComponent&#45;&gt;AppModule</title>
<path fill="none" stroke="black" d="M1967,-122.03C1967,-138.4 1967,-160 1967,-160 1967,-160 2680.33,-160 2680.33,-160"/>
<polygon fill="black" stroke="black" points="2680.33,-163.5 2690.33,-160 2680.33,-156.5 2680.33,-163.5"/>
</g>
<!-- ReferenciasComponent -->
<g id="node21" class="node">
<title>ReferenciasComponent</title>
<polygon fill="#ffffb3" stroke="black" points="1819.9,-122 1672.1,-122 1672.1,-86 1819.9,-86 1819.9,-122"/>
<text text-anchor="middle" x="1746" y="-99.8" font-family="Times,serif" font-size="14.00">ReferenciasComponent</text>
</g>
<!-- ReferenciasComponent&#45;&gt;AppModule -->
<g id="edge21" class="edge">
<title>ReferenciasComponent&#45;&gt;AppModule</title>
<path fill="none" stroke="black" d="M1746,-122.02C1746,-139.37 1746,-163 1746,-163 1746,-163 2680.26,-163 2680.26,-163"/>
<polygon fill="black" stroke="black" points="2680.26,-166.5 2690.26,-163 2680.26,-159.5 2680.26,-166.5"/>
</g>
<!-- SafePipe -->
<g id="node22" class="node">
<title>SafePipe</title>
<polygon fill="#ffffb3" stroke="black" points="1653.76,-122 1588.24,-122 1588.24,-86 1653.76,-86 1653.76,-122"/>
<text text-anchor="middle" x="1621" y="-99.8" font-family="Times,serif" font-size="14.00">SafePipe</text>
</g>
<!-- SafePipe&#45;&gt;AppModule -->
<g id="edge22" class="edge">
<title>SafePipe&#45;&gt;AppModule</title>
<path fill="none" stroke="black" d="M1621,-122.3C1621,-140.27 1621,-165 1621,-165 1621,-165 2680.14,-165 2680.14,-165"/>
<polygon fill="black" stroke="black" points="2680.14,-168.5 2690.14,-165 2680.14,-161.5 2680.14,-168.5"/>
</g>
<!-- SafeUrlPipePipe -->
<g id="node23" class="node">
<title>SafeUrlPipePipe</title>
<polygon fill="#ffffb3" stroke="black" points="1569.81,-122 1460.19,-122 1460.19,-86 1569.81,-86 1569.81,-122"/>
<text text-anchor="middle" x="1515" y="-99.8" font-family="Times,serif" font-size="14.00">SafeUrlPipePipe</text>
</g>
<!-- SafeUrlPipePipe&#45;&gt;AppModule -->
<g id="edge23" class="edge">
<title>SafeUrlPipePipe&#45;&gt;AppModule</title>
<path fill="none" stroke="black" d="M1515,-122.22C1515,-140.83 1515,-167 1515,-167 1515,-167 2680.11,-167 2680.11,-167"/>
<polygon fill="black" stroke="black" points="2680.11,-170.5 2690.11,-167 2680.11,-163.5 2680.11,-170.5"/>
</g>
<!-- SaibaMaisComponent -->
<g id="node24" class="node">
<title>SaibaMaisComponent</title>
<polygon fill="#ffffb3" stroke="black" points="1442.43,-122 1301.57,-122 1301.57,-86 1442.43,-86 1442.43,-122"/>
<text text-anchor="middle" x="1372" y="-99.8" font-family="Times,serif" font-size="14.00">SaibaMaisComponent</text>
</g>
<!-- SaibaMaisComponent&#45;&gt;AppModule -->
<g id="edge24" class="edge">
<title>SaibaMaisComponent&#45;&gt;AppModule</title>
<path fill="none" stroke="black" d="M1372,-122.11C1372,-141.34 1372,-169 1372,-169 1372,-169 2680.18,-169 2680.18,-169"/>
<polygon fill="black" stroke="black" points="2680.18,-172.5 2690.18,-169 2680.18,-165.5 2680.18,-172.5"/>
</g>
<!-- SlideComponent -->
<g id="node25" class="node">
<title>SlideComponent</title>
<polygon fill="#ffffb3" stroke="black" points="1284.11,-122 1173.89,-122 1173.89,-86 1284.11,-86 1284.11,-122"/>
<text text-anchor="middle" x="1229" y="-99.8" font-family="Times,serif" font-size="14.00">SlideComponent</text>
</g>
<!-- SlideComponent&#45;&gt;AppModule -->
<g id="edge25" class="edge">
<title>SlideComponent&#45;&gt;AppModule</title>
<path fill="none" stroke="black" d="M1229,-122.22C1229,-142.37 1229,-172 1229,-172 1229,-172 2680.23,-172 2680.23,-172"/>
<polygon fill="black" stroke="black" points="2680.23,-175.5 2690.23,-172 2680.23,-168.5 2680.23,-175.5"/>
</g>
<!-- SlideUnidadeComponent -->
<g id="node26" class="node">
<title>SlideUnidadeComponent</title>
<polygon fill="#ffffb3" stroke="black" points="1155.54,-122 998.46,-122 998.46,-86 1155.54,-86 1155.54,-122"/>
<text text-anchor="middle" x="1077" y="-99.8" font-family="Times,serif" font-size="14.00">SlideUnidadeComponent</text>
</g>
<!-- SlideUnidadeComponent&#45;&gt;AppModule -->
<g id="edge26" class="edge">
<title>SlideUnidadeComponent&#45;&gt;AppModule</title>
<path fill="none" stroke="black" d="M1077,-122.03C1077,-142.77 1077,-174 1077,-174 1077,-174 2680.26,-174 2680.26,-174"/>
<polygon fill="black" stroke="black" points="2680.26,-177.5 2690.26,-174 2680.26,-170.5 2680.26,-177.5"/>
</g>
<!-- SocioconstrutivismoComponent -->
<g id="node27" class="node">
<title>SocioconstrutivismoComponent</title>
<polygon fill="#ffffb3" stroke="black" points="980.44,-122 783.56,-122 783.56,-86 980.44,-86 980.44,-122"/>
<text text-anchor="middle" x="882" y="-99.8" font-family="Times,serif" font-size="14.00">SocioconstrutivismoComponent</text>
</g>
<!-- SocioconstrutivismoComponent&#45;&gt;AppModule -->
<g id="edge27" class="edge">
<title>SocioconstrutivismoComponent&#45;&gt;AppModule</title>
<path fill="none" stroke="black" d="M882,-122.17C882,-143.5 882,-176 882,-176 882,-176 2680.33,-176 2680.33,-176"/>
<polygon fill="black" stroke="black" points="2680.33,-179.5 2690.33,-176 2680.33,-172.5 2680.33,-179.5"/>
</g>
<!-- SpanAnimationComponent -->
<g id="node28" class="node">
<title>SpanAnimationComponent</title>
<polygon fill="#ffffb3" stroke="black" points="765.71,-122 596.29,-122 596.29,-86 765.71,-86 765.71,-122"/>
<text text-anchor="middle" x="681" y="-99.8" font-family="Times,serif" font-size="14.00">SpanAnimationComponent</text>
</g>
<!-- SpanAnimationComponent&#45;&gt;AppModule -->
<g id="edge28" class="edge">
<title>SpanAnimationComponent&#45;&gt;AppModule</title>
<path fill="none" stroke="black" d="M681,-122.29C681,-144.21 681,-178 681,-178 681,-178 2680.1,-178 2680.1,-178"/>
<polygon fill="black" stroke="black" points="2680.1,-181.5 2690.1,-178 2680.1,-174.5 2680.1,-181.5"/>
</g>
<!-- SpanAnimationTextoComponent -->
<g id="node29" class="node">
<title>SpanAnimationTextoComponent</title>
<polygon fill="#ffffb3" stroke="black" points="577.87,-122 376.13,-122 376.13,-86 577.87,-86 577.87,-122"/>
<text text-anchor="middle" x="477" y="-99.8" font-family="Times,serif" font-size="14.00">SpanAnimationTextoComponent</text>
</g>
<!-- SpanAnimationTextoComponent&#45;&gt;AppModule -->
<g id="edge29" class="edge">
<title>SpanAnimationTextoComponent&#45;&gt;AppModule</title>
<path fill="none" stroke="black" d="M477,-122.25C477,-145.02 477,-181 477,-181 477,-181 2679.96,-181 2679.96,-181"/>
<polygon fill="black" stroke="black" points="2679.96,-184.5 2689.96,-181 2679.96,-177.5 2679.96,-184.5"/>
</g>
<!-- TopicoForumComponent -->
<g id="node30" class="node">
<title>TopicoForumComponent</title>
<polygon fill="#ffffb3" stroke="black" points="358.32,-122 199.68,-122 199.68,-86 358.32,-86 358.32,-122"/>
<text text-anchor="middle" x="279" y="-99.8" font-family="Times,serif" font-size="14.00">TopicoForumComponent</text>
</g>
<!-- TopicoForumComponent&#45;&gt;AppModule -->
<g id="edge30" class="edge">
<title>TopicoForumComponent&#45;&gt;AppModule</title>
<path fill="none" stroke="black" d="M279,-122.32C279,-145.66 279,-183 279,-183 279,-183 2680.2,-183 2680.2,-183"/>
<polygon fill="black" stroke="black" points="2680.2,-186.5 2690.2,-183 2680.2,-179.5 2680.2,-186.5"/>
</g>
<!-- VideoSectionComponent -->
<g id="node31" class="node">
<title>VideoSectionComponent</title>
<polygon fill="#ffffb3" stroke="black" points="181.54,-122 24.46,-122 24.46,-86 181.54,-86 181.54,-122"/>
<text text-anchor="middle" x="103" y="-99.8" font-family="Times,serif" font-size="14.00">VideoSectionComponent</text>
</g>
<!-- VideoSectionComponent&#45;&gt;AppModule -->
<g id="edge31" class="edge">
<title>VideoSectionComponent&#45;&gt;AppModule</title>
<path fill="none" stroke="black" d="M103,-122.38C103,-146.28 103,-185 103,-185 103,-185 2680.17,-185 2680.17,-185"/>
<polygon fill="black" stroke="black" points="2680.17,-188.5 2690.17,-185 2680.17,-181.5 2680.17,-188.5"/>
</g>
<!-- AppRoutingModule -->
<g id="node33" class="node">
<title>AppRoutingModule</title>
<polygon fill="#8dd3c7" stroke="black" points="5571.27,-122 5568.27,-126 5547.27,-126 5544.27,-122 5442.73,-122 5442.73,-86 5571.27,-86 5571.27,-122"/>
<text text-anchor="middle" x="5507" y="-99.8" font-family="Times,serif" font-size="14.00">AppRoutingModule</text>
</g>
<!-- AppRoutingModule&#45;&gt;AppModule -->
<g id="edge32" class="edge">
<title>AppRoutingModule&#45;&gt;AppModule</title>
<path fill="none" stroke="black" d="M5507,-122.38C5507,-146.28 5507,-185 5507,-185 5507,-185 2783.93,-185 2783.93,-185"/>
<polygon fill="black" stroke="black" points="2783.93,-181.5 2773.93,-185 2783.93,-188.5 2783.93,-181.5"/>
</g>
</g>
</svg>
